<?xml version="1.0" encoding="UTF-8"?><svg id="Layer_1" xmlns="http://www.w3.org/2000/svg" viewBox="0 0 450.03 90.66"><defs><style>.cls-1{fill:#e59d35;}</style></defs><g id="Logo_01:_600600_px"><g id="Text-5"><path class="cls-1" d="m291.77,60.91h-10.36c-1.39.02-2.53-1.08-2.55-2.47h0v-26.14c.02-1.39,1.16-2.49,2.55-2.47h8.72c4.65,0,9.44,2.47,9.44,7.9,0,3.33-1.5,5.66-4,6.75v.09c4.47,1,6.57,3.93,6.57,8-.01,5.8-5.14,8.34-10.37,8.34Zm-2.51-26.92h-5.26v9.08h5.56c2.33,0,4.89-1.1,4.89-4.7-.03-3-2.45-4.38-5.19-4.38h0Zm1.74,13.18h-7v9.59h6.75c3.24,0,6.21-1.15,6.21-4.84-.03-2.65-1.86-4.75-5.96-4.75Z"/><path class="cls-1" d="m328.13,53.93h-13l-2.13,5.65c-.31,1.13-1.38,1.88-2.55,1.78-1.25.08-2.33-.86-2.42-2.11,0-.07,0-.14,0-.21.03-.42.12-.84.27-1.24l9.9-25.78c.41-1.61,1.9-2.72,3.56-2.64,1.65-.04,3.12,1.05,3.56,2.64,3.92,10.32,5.89,15.47,9.81,25.78.12.39.2.79.23,1.19.03,1.29-.99,2.35-2.28,2.38-.09,0-.19,0-.28-.01-1.14.07-2.17-.67-2.46-1.78-.9-2.21-1.34-3.39-2.21-5.65Zm-11.68-4.11h10.45l-5.2-13.92-5.25,13.92Z"/><path class="cls-1" d="m367.73,44.8c1.21-.05,2.24.89,2.29,2.1,0,.12,0,.24-.01.36v11.64c.05,1.31-.97,2.41-2.28,2.46-.06,0-.12,0-.18,0-1.18.09-2.24-.71-2.47-1.87-2.44,1.24-5.15,1.88-7.89,1.87-9,0-16-5.65-16-16,.1-8.9,7.4-16.04,16.31-15.93.04,0,.08,0,.12,0,3.7,0,9.77.91,9.77,4.06.06,1.26-.92,2.32-2.18,2.38-.07,0-.14,0-.2,0-1.73,0-3.1-1.83-7.48-1.83-6.16.09-11.08,5.16-11,11.32,0,6.84,4.7,11.45,11,11.45,2.66.03,5.27-.7,7.53-2.1v-5.34h-6.48c-1.22-.02-2.2-1.02-2.19-2.24,0-1.23.96-2.24,2.19-2.28l9.15-.05Z"/><path class="cls-1" d="m385,56.37h16.11c1.25,0,2.26,1.02,2.26,2.26,0,1.24-1.01,2.25-2.26,2.26h-18.69c-1.39.03-2.53-1.07-2.56-2.46h0v-26.13c.02-1.39,1.16-2.49,2.55-2.47h.01s18.66,0,18.66,0c1.23.03,2.21,1.05,2.19,2.28.02,1.21-.94,2.22-2.16,2.24-.01,0-.02,0-.03,0h-16.08v8.72h13.74c1.25.08,2.19,1.16,2.1,2.41-.08,1.13-.98,2.03-2.1,2.1h-13.74v8.79Z"/><path class="cls-1" d="m416.4,58.9c-.09,1.41-1.3,2.48-2.72,2.39-1.29-.08-2.31-1.11-2.39-2.39v-26.53c0-1.39,1.14-2.52,2.53-2.51.01,0,.02,0,.03,0h10.86c3,0,5.63.46,7.71,1.92,2.42,1.87,3.77,4.8,3.61,7.85.09,2.93-1.22,5.72-3.52,7.53-.95.79-2.05,1.38-3.24,1.73l6.39,8.62c.26.39.41.86.41,1.33-.04,1.41-1.19,2.54-2.6,2.55-.88-.01-1.7-.45-2.19-1.18l-7.67-10.73h-7.21v9.42Zm0-24.73v10.95h7.76c1.53.1,3.06-.21,4.43-.91,2.53-1.91,3.03-5.5,1.12-8.03-.3-.39-.65-.75-1.03-1.05-1.36-.75-2.92-1.1-4.47-1l-7.81.04Z"/><path class="cls-1" d="m444.92,31.89c.09-1.41,1.3-2.48,2.72-2.39,1.29.08,2.31,1.11,2.39,2.39v27c-.04,1.38-1.18,2.48-2.56,2.46-1.38.03-2.52-1.07-2.55-2.45h0v-27.01Z"/><path class="cls-1" d="m23.38,57.07c-3.51,2.88-7.89,3.61-12.09,3.61H2.53c-1.38.01-2.51-1.09-2.53-2.47v-26.14c.03-1.39,1.17-2.49,2.56-2.46,0,0,0,0,0,0h9.4c5,0,9.44,1.09,12.87,4.83,2.28,2.42,3.69,5.93,3.69,10.68-.03,5.57-2.08,9.44-5.14,11.95Zm-18.3-.7h5.8c3.51,0,6.52-.78,8.76-2.65s3.65-4.7,3.65-8.62c.15-2.84-.8-5.64-2.65-7.8-2.14-2.38-5.47-3.43-9.49-3.43h-6.07v22.5Z"/><path class="cls-1" d="m38.84,56.16h16.16c1.25,0,2.26,1.02,2.26,2.26,0,1.24-1.01,2.25-2.26,2.26h-18.71c-1.39.03-2.53-1.07-2.56-2.46,0,0,0,0,0-.01v-26.14c.03-1.39,1.17-2.49,2.56-2.46,0,0,0,0,0,0h18.71c1.23.03,2.21,1.05,2.19,2.28.02,1.21-.95,2.21-2.17,2.23,0,0-.01,0-.02,0h-16.16v8.72h13.74c1.25.08,2.19,1.16,2.1,2.41-.08,1.13-.98,2.03-2.1,2.1h-13.74v8.81Z"/><path class="cls-1" d="m75.48,34.12v24.55c-.04,1.38-1.18,2.48-2.56,2.46-1.38.03-2.52-1.07-2.55-2.45,0,0,0,0,0-.01v-24.55h-8.54c-1.22-.02-2.19-1.01-2.19-2.23,0-1.23.96-2.24,2.19-2.28h22.17c1.24.02,2.24,1.04,2.23,2.28,0,1.23-1,2.23-2.23,2.23h-8.52Z"/><path class="cls-1" d="m248.8,22.9c-.44.21,3.3,6,4.49,16.06.34,3.04.42,6.11.24,9.16-.33,5.85-1.55,11.61-3.61,17.09-.12.31.04.66.35.77.23.08.48.02.65-.15,5.04-5.6,7.86-12.85,7.93-20.38-.19-6.64-2.33-13.09-6.14-18.53-1.49-2.07-3.49-4.24-3.91-4.02Z"/><path class="cls-1" d="m114.88,26.79c.14-.43-.09-.89-.52-1.04-.33-.11-.69,0-.9.27-4.66,5.88-7.27,12.44-7.27,19.37,0,7.61,3.14,14.78,8.69,21.07.13.15.36.17.51.04.11-.1.15-.26.1-.4-1.64-4.18-2.75-8.55-3.3-13-.57-4.84-.52-9.73.16-14.56.49-3.99,1.33-7.92,2.53-11.75Z"/><path class="cls-1" d="m143,66.49c.46.88.68,1.86.64,2.85,0,2.21-.55,3.79-1.61,4.69-2.08,2.04-4.67,3.46-7.5,4.13-2.57.55-5.36-.2-8.2-2-3.65-2.48-6.4-6.06-7.87-10.22-1.47-3.71-2.21-7.66-2.19-11.65.08-4.57.62-9.12,1.61-13.58,1.17-5.86,2.96-11.59,5.33-17.08,2.54-5.94,5.81-10.75,10.07-12.89,2.41-1.21,4.42-1,5.91.83s2.26,5,2.26,9.52c0,6.42-1.89,14.41-5.33,22.47s-7.92,15.14-12.63,19.33c.19,1.52.69,2.99,1.46,4.31.67,1.08,1.65,1.95,2.8,2.49,1.58.87,3.44,1.05,5.16.5,2.3-1.05,4.39-2.52,6.16-4.33.58-.58,1.41-.82,2.21-.65.74.15,1.37.62,1.72,1.28Zm-15-40.62c-1.43,4.67-2.56,9.43-3.39,14.24-.92,4.75-1.46,9.57-1.61,14.41,3.22-4.62,5.77-9.67,7.57-15,1.93-5.17,3-10.63,3.15-16.15,0-3.74-.72-5.34-2.09-4.77-1.12.51-2.37,3.06-3.69,7.27h.06Z"/><path class="cls-1" d="m139.25,79.17c-1.63-3.19-2.44-6.73-2.36-10.31.06-2.93.37-5.86.91-8.74.58-3.42,1.38-6.81,2.39-10.13.29-1.34.99-2.57,2-3.5,1.23-.76,2.67-1.11,4.11-1,3,0,4.53,1,4.53,3-.29,3.38-.86,6.72-1.71,10-1.39,6.18-2.12,10.26-2.12,12.47-.06,1.39.18,2.79.7,4.08.44,1,1.34,1.71,2.41,1.91,1.08.23,2.45-.21,4.12-1.42,2.46-1.89,4.75-4,6.84-6.29.67-.74,1.64-1.13,2.63-1.07.84.07,1.58.55,2,1.28.54.96.8,2.05.75,3.15,0,2.51-.64,4.4-1.89,5.64-6.52,6.84-12.28,9-17.33,7.44-3.44-.99-6.32-3.34-7.98-6.51Zm3.27-40.65c-1.22-1.07-1.87-2.65-1.76-4.27.02-1.94.86-3.78,2.3-5.07,1.63-1.59,3.74-2.58,6-2.84,1.88-.36,3.83-.03,5.48.94,1.45.98,2.27,2.66,2.15,4.41.08,2.21-.8,4.35-2.43,5.85-1.74,1.5-3.96,2.33-6.26,2.32-2.52.11-4.31-.36-5.48-1.34Z"/><path class="cls-1" d="m199.29,69.45c.54.9.8,1.95.74,3,.12,2.16-.55,4.3-1.89,6-2.7,3.45-5.92,6.46-9.54,8.92-3.55,2.34-7.75,3.49-12,3.26-6.1-.28-10.43-3.43-13.21-8.75s-4.11-11.81-4.13-19.54c.16-8.6,1.18-17.16,3.05-25.56,1.76-8.43,4.93-18.12,9.29-25.72C175.8,3.74,180.99-.19,186.92,0c3.25.09,6.21,1.89,7.79,4.73,1.86,3,2.75,7.08,2.77,12.28,0,9.16-3.29,17.93-6.72,26-4.46,10.5-11.29,20.57-18.7,29.62.24,2.08,1.06,4.06,2.37,5.7,1.14,1.19,2.72,1.85,4.37,1.82,2.71.11,5.38-.68,7.59-2.25,3.01-2.35,5.75-5.04,8.16-8,.68-.84,1.66-1.37,2.73-1.47.81-.07,1.58.32,2.01,1.01Zm-20.22-51.95c-2.32,6.45-4.09,13.08-5.3,19.82-1.46,7.41-2.29,14.93-2.46,22.48,4.73-7.01,8.68-14.51,11.78-22.38,2.92-7.51,4.42-14.36,4.42-20.56,0-4.86-1-7.33-2.94-7.35-1.57-.02-3.47,2.64-5.5,7.99h0Z"/><path class="cls-1" d="m228.55,65.05c.45.71.66,1.54.59,2.37.05,1.85-.47,3.67-1.49,5.22-2.23,3.45-4.83,6.63-7.76,9.5-2.84,2.83-6.41,4.81-10.31,5.73-5.5,1.24-9.84-.66-12.69-5.42s-4.3-11.33-4.32-19.38c.17-8.9,1.24-17.75,3.21-26.43,1.67-7.94,4.75-17.33,9.19-24.37,3.95-6.28,8.53-8.52,13.49-6.94,2.84.99,5.16,3.1,6.4,5.84,1.6,3.36,2.37,7.06,2.23,10.78,0,6.19-1.62,13.09-5.44,21.42-4.68,9.84-10.11,19.3-16.25,28.3.45,2.46,1.19,4.14,2.2,5.05,1.09.92,2.55,1.26,3.93.91,2.45-.47,4.71-1.65,6.49-3.39,2.46-2.53,4.7-5.26,6.72-8.15.51-.78,1.29-1.35,2.19-1.59.6-.18,1.25.04,1.62.55Zm-16.74-45.45c-2.12,5.88-3.72,11.94-4.78,18.1-1.37,7.15-2.15,14.39-2.31,21.67,4.18-6.7,7.71-13.78,10.55-21.14,2.51-6.68,3.71-12.46,3.71-17.92,0-4.28-.8-6.63-2.46-7-1.37-.38-2.93,1.65-4.71,6.29h0Z"/><path class="cls-1" d="m248.38,59.3c.3.38.44.86.38,1.34-.03,1.27-.32,2.51-.86,3.66-1.04,2.4-2.39,4.66-4,6.72-1.91,2.48-4.27,4.58-6.94,6.2-4.41,2.68-8.34,3.06-11.21,1s-4.41-6-4.41-11.39c0-3.77.82-7.49,2.43-10.89,1.43-3.14,3.65-5.85,6.45-7.86,2.45-1.73,5.37-2.66,8.37-2.64,2.11-.12,4.18.57,5.8,1.93,1.36,1.21,2.1,2.98,2,4.8-.09,2.74-1.08,5.37-2.81,7.49-1.95,2.72-5.39,6-11.32,9.5,1.2,1.82,3.2,2.05,5.77.78,1.69-.83,3.17-2.02,4.35-3.49,1.33-1.77,2.53-3.65,3.58-5.6.33-.65.82-1.2,1.44-1.58.39-.2.73-.2.98.03Zm-15.38-3.63c-1.3,2.46-1.96,5.21-1.91,8v.15c2.5-1.15,4.77-2.76,6.69-4.74,1.32-1.23,2.11-2.91,2.22-4.71.05-.68-.21-1.34-.69-1.82-.53-.44-1.23-.61-1.91-.48-1.67.18-3.17,1.3-4.4,3.6Z"/></g></g></svg>