<?xml version="1.0" encoding="utf-8"?>
<!-- Generator: Adobe Illustrator 27.4.1, SVG Export Plug-In . SVG Version: 6.00 Build 0)  -->
<svg version="1.1" id="Layer_1" xmlns="http://www.w3.org/2000/svg" xmlns:xlink="http://www.w3.org/1999/xlink" x="0px" y="0px"
	 viewBox="0 0 516 101" style="enable-background:new 0 0 516 101;" xml:space="preserve">
<style type="text/css">
	.st0{fill:#E59D35;}
</style>
<g id="Logo_01:_600_x_600_px">
	<g id="Text-5">
		<path class="st0" d="M181,71.1c0-0.9,0.8-1.6,1.7-1.6c0,0,0,0,0,0c0.9,0,1.6,0.7,1.7,1.6c0,0,0,0,0,0v7.2H195v-7.2
			c0-0.9,0.8-1.6,1.7-1.6c0.9,0,1.6,0.7,1.7,1.6c0,0,0,0,0,0v17.6c0,0.9-0.7,1.6-1.6,1.6c0,0,0,0,0,0c-0.9,0-1.6-0.7-1.7-1.6v-7.4
			h-10.6v7.4c0,0.9-0.8,1.6-1.7,1.6c-0.9,0-1.7-0.7-1.7-1.6c0,0,0,0,0,0V71.1z"/>
		<path class="st0" d="M210.4,87.1h10.5c0.8,0,1.5,0.7,1.5,1.5s-0.7,1.5-1.5,1.5h-12.2c-0.9,0-1.6-0.7-1.7-1.6c0,0,0,0,0,0v-17
			c0-0.9,0.7-1.6,1.6-1.6c0,0,0,0,0,0h12.1c0.8,0,1.4,0.7,1.4,1.5c0,0,0,0,0,0c0,0.8-0.6,1.4-1.4,1.5c0,0,0,0,0,0h-10.5v5.7h8.9
			c0.8,0,1.5,0.7,1.5,1.5s-0.7,1.5-1.5,1.5l0,0h-8.9V87.1z"/>
		<path class="st0" d="M247.5,88.5c0,1-0.9,1.8-1.9,1.8c0,0,0,0,0,0c-0.7,0-1.3-0.3-1.7-0.9l-11-14.2v13.5c-0.1,0.9-0.8,1.5-1.7,1.5
			c-0.8-0.1-1.4-0.7-1.5-1.5V71.3c0-1,0.9-1.8,1.9-1.8c0,0,0,0,0,0c0.7,0,1.3,0.4,1.6,0.9l11.1,14.1V71c0-0.8,0.7-1.5,1.5-1.5
			c0,0,0,0,0,0c0.9,0,1.6,0.7,1.6,1.5c0,0,0,0,0,0V88.5z"/>
		<path class="st0" d="M274,88.5c0,1-0.9,1.8-1.9,1.8c0,0,0,0,0,0c-0.7,0-1.3-0.3-1.7-0.9l-11-14.2v13.5c-0.1,0.9-0.8,1.5-1.7,1.5
			c-0.8-0.1-1.4-0.7-1.5-1.5V71.3c0-1,0.9-1.8,1.9-1.8c0,0,0,0,0,0c0.7,0,1.3,0.4,1.6,0.9l11.1,14.1V71c0-0.8,0.7-1.5,1.5-1.5
			c0,0,0,0,0,0c0.8,0,1.5,0.7,1.6,1.5V88.5z"/>
		<path class="st0" d="M286,87.1h10.5c0.8,0,1.5,0.7,1.5,1.5s-0.7,1.5-1.5,1.5l0,0h-12.1c-0.9,0-1.6-0.7-1.7-1.6c0,0,0,0,0,0v-17
			c0-0.9,0.7-1.6,1.6-1.6c0,0,0,0,0,0h12.1c0.8,0,1.4,0.7,1.4,1.5c0,0,0,0,0,0c0,0.8-0.6,1.4-1.4,1.5c0,0,0,0,0,0H286v5.7h9
			c0.8,0,1.5,0.7,1.5,1.5s-0.7,1.5-1.5,1.5h-8.9L286,87.1z"/>
		<path class="st0" d="M328.8,73.7c-1.4,0-2.4-1.2-4.9-1.2s-3.8,0.7-3.8,2.4c0,1.3,1.1,2,2.8,2.6c2,0.5,4,1.2,5.8,2.2
			c1.6,0.9,2.5,2.6,2.5,4.4c0,3.9-3.2,6.2-7.5,6.2c-2.9,0-7.2-1.1-7.2-3c0-0.9,0.7-1.6,1.6-1.6c1.3,0,2.4,1.7,5.5,1.7
			c2.8,0,3.9-1.4,3.9-3c0-1.4-1.1-2.1-2.5-2.7c-1.9-0.5-3.8-1.2-5.6-2c-1.8-0.9-2.8-2.7-2.8-4.6c0-3.3,2.6-5.5,7.5-5.5
			c1.3,0,6.3,0.4,6.3,2.6C330.3,73,329.6,73.7,328.8,73.7z"/>
		<path class="st0" d="M347,72.7v16c0,0.9-0.8,1.6-1.7,1.6c-0.9,0-1.6-0.7-1.7-1.6c0,0,0,0,0,0v-16h-5.5c-0.8,0-1.4-0.7-1.4-1.5
			c0-0.8,0.6-1.5,1.4-1.5h14.4c0.8,0,1.5,0.7,1.5,1.5c0,0.8-0.6,1.5-1.5,1.5L347,72.7z"/>
		<path class="st0" d="M363.9,88.7c0,0.9-0.8,1.6-1.7,1.6c-0.9,0-1.6-0.7-1.7-1.6c0,0,0,0,0,0V71.4c0-0.9,0.7-1.6,1.6-1.6
			c0,0,0,0,0,0h7.1c1.8-0.1,3.5,0.3,5,1.2c1.6,1.2,2.5,3.1,2.4,5.1c0.1,1.9-0.8,3.7-2.3,4.9c-0.6,0.5-1.3,0.9-2.1,1.1l4.1,5.6
			c0.2,0.3,0.3,0.6,0.3,0.9c0,0.9-0.8,1.7-1.7,1.7c-0.6,0-1.1-0.3-1.4-0.8l-5-7h-4.7L363.9,88.7z M363.9,72.6v7.1h5
			c1,0.1,2-0.1,2.9-0.6c1-0.6,1.6-1.8,1.5-2.9c0.1-1.2-0.4-2.3-1.4-3c-0.9-0.5-1.9-0.7-2.9-0.6L363.9,72.6z"/>
		<path class="st0" d="M395.9,85.5h-8.5l-1.4,3.7c-0.2,0.7-0.9,1.2-1.7,1.2c-0.8,0.1-1.5-0.6-1.6-1.4c0,0,0-0.1,0-0.1
			c0-0.3,0.1-0.5,0.2-0.8l6.4-16.8c0.3-1.1,1.2-1.8,2.3-1.7c1.1,0,2,0.7,2.3,1.7l6.4,16.8c0.1,0.3,0.1,0.5,0.1,0.8
			c0,0.8-0.6,1.5-1.5,1.6c-0.1,0-0.1,0-0.2,0c-0.7,0-1.4-0.4-1.6-1.2L395.9,85.5z M388.3,82.8h6.8l-3.4-9L388.3,82.8z"/>
		<path class="st0" d="M425.2,88.5c0,1-0.9,1.8-1.9,1.8c0,0,0,0,0,0c-0.7,0-1.3-0.3-1.7-0.9l-11-14.2v13.5c0,0.9-0.7,1.6-1.6,1.6
			c-0.9,0-1.6-0.7-1.6-1.6V71.3c0-1,0.9-1.8,1.9-1.8c0,0,0,0,0,0c0.7,0,1.3,0.4,1.6,0.9l11,14.1V71c0-0.8,0.7-1.5,1.5-1.5
			c0,0,0,0,0,0c0.9,0,1.6,0.7,1.6,1.5L425.2,88.5z"/>
		<path class="st0" d="M449.1,87.7c-2.3,1.7-5.1,2.5-7.9,2.4h-5.7c-0.9,0-1.6-0.7-1.7-1.6c0,0,0,0,0,0v-17c0-0.9,0.7-1.6,1.6-1.6
			c0,0,0,0,0,0h6.1c3.2,0,6.1,0.7,8.4,3.2c1.7,1.9,2.5,4.4,2.4,6.9C452.6,82.9,451.4,85.7,449.1,87.7z M437.2,87.2h3.8
			c2,0.1,4.1-0.5,5.7-1.7c1.6-1.4,2.5-3.5,2.4-5.6c0.1-1.8-0.5-3.7-1.7-5.1c-1.4-1.6-3.6-2.2-6.2-2.2h-4L437.2,87.2z"/>
		<path class="st0" d="M202.8,40.8c-3.7,3-8.3,3.8-12.7,3.8h-9.2c-1.5,0-2.7-1.1-2.7-2.6c0,0,0,0,0,0V14.5c0-1.4,1.2-2.6,2.7-2.5
			h9.9c5.2,0,9.9,1.2,13.5,5.1c2.4,2.5,3.9,6.2,3.9,11.2C208.1,34.1,206,38.2,202.8,40.8z M183.5,40.1h6.1c3.7,0,6.9-0.8,9.2-2.8
			s3.8-4.9,3.8-9.1c0.2-3-0.8-5.9-2.8-8.2c-2.3-2.5-5.8-3.6-10-3.6h-6.4L183.5,40.1z"/>
		<path class="st0" d="M233.7,41.4c0,1.1-0.8,1.8-2.3,2.4c-2.1,0.9-4.3,1.3-6.6,1.3c-3.2,0.1-6.4-1.1-8.6-3.4c-2-2.3-3.1-5.2-3-8.3
			c-0.1-3,1-5.8,3-8c4.4-4.1,11.3-4.2,15.8-0.1c1.8,1.9,2.7,4.4,2.6,7c0.1,1.4-0.9,2.6-2.2,2.7c-0.1,0-0.2,0-0.3,0h-13.8
			c0.1,1.5,0.7,2.9,1.6,4c1.3,1.5,3.2,2.3,5.2,2.2c1.5,0,3-0.4,4.4-1c1.1-0.5,1.6-0.9,2.3-0.9C232.9,39.4,233.7,40.3,233.7,41.4
			C233.7,41.4,233.7,41.4,233.7,41.4z M229.8,31.7c0-1.4-0.5-2.7-1.4-3.8c-1.1-1.1-2.6-1.7-4.1-1.6c-1.7-0.1-3.3,0.5-4.5,1.7
			c-0.9,1.1-1.4,2.3-1.4,3.7L229.8,31.7z"/>
		<path class="st0" d="M241.5,22.8v-3.4c0-1.3,1.1-2.4,2.4-2.4c0,0,0,0,0,0c1.3,0,2.5,1.1,2.5,2.4v3.4h5.5c1.1,0.1,1.9,1,1.8,2.1
			c-0.1,1-0.8,1.7-1.8,1.8h-5.5v10.5c0,2.6,0.9,3.8,3.1,3.8s2.8-1.6,4.2-1.6c1,0,1.8,0.7,1.9,1.7c0,0.1,0,0.2,0,0.3
			c0,1.2-1.2,2.2-2.6,2.8c-1.4,0.6-2.9,0.9-4.4,0.9c-5.2,0-7.1-3.4-7.1-7.5V26.7h-1.8c-1.1-0.1-1.9-1-1.8-2.1c0.1-1,0.8-1.7,1.8-1.8
			H241.5z"/>
		<path class="st0" d="M273,14.1c0-1.5,1.2-2.6,2.7-2.6c0,0,0,0,0,0c1.4,0,2.6,1.1,2.7,2.5c0,0,0,0.1,0,0.1v25.8h13.9
			c1.3,0.1,2.3,1.2,2.2,2.5c-0.1,1.2-1,2.1-2.2,2.2h-16.7c-1.4,0-2.6-1.1-2.6-2.6V14.1z"/>
		<path class="st0" d="M299.2,12.8c0-1.6,1.3-2.9,2.9-2.8s2.9,1.3,2.8,2.9c0,1.6-1.3,2.8-2.8,2.8c-1.6,0-2.8-1.2-2.9-2.7
			C299.2,12.9,299.2,12.8,299.2,12.8z M302.1,22.4c1.3,0,2.4,1,2.4,2.4c0,0,0,0,0,0v18c0,1.3-1.1,2.4-2.4,2.4c-1.3,0-2.4-1-2.4-2.3
			c0,0,0-0.1,0-0.1v-18C299.6,23.4,300.7,22.4,302.1,22.4C302.1,22.4,302.1,22.4,302.1,22.4z"/>
		<path class="st0" d="M312.1,14c0-1.3,1.1-2.4,2.4-2.4c0,0,0,0,0,0c1.3,0,2.4,1,2.4,2.3c0,0,0,0,0,0.1v28.7
			c-0.1,1.4-1.3,2.4-2.6,2.3c-1.2-0.1-2.2-1.1-2.3-2.3L312.1,14z"/>
		<path class="st0" d="M324.5,14c0-1.3,1.1-2.4,2.4-2.4c0,0,0,0,0,0c1.3,0,2.4,1,2.4,2.3c0,0,0,0,0,0.1v28.7c0,1.4-1.1,2.4-2.5,2.4
			c-1.4,0-2.4-1.1-2.4-2.4L324.5,14z"/>
		<path class="st0" d="M356.1,41.4c0,1.1-0.8,1.8-2.3,2.4c-2.1,0.9-4.3,1.3-6.6,1.3c-3.2,0.1-6.4-1.1-8.6-3.4c-2-2.3-3.1-5.2-3-8.3
			c-0.1-3,1-5.8,3-8c4.4-4.1,11.2-4.2,15.8-0.2c1.8,1.9,2.7,4.4,2.6,7c0.1,1.4-0.9,2.6-2.2,2.7c-0.1,0-0.2,0-0.3,0h-13.7
			c0.1,1.5,0.7,2.9,1.6,4c1.3,1.5,3.2,2.3,5.2,2.2c1.5,0,3-0.4,4.4-1c1-0.5,1.6-0.9,2.3-0.9C355.4,39.4,356.2,40.3,356.1,41.4
			C356.1,41.3,356.1,41.4,356.1,41.4z M352.2,31.7c0-1.4-0.5-2.7-1.4-3.8c-1.1-1.1-2.6-1.7-4.1-1.6c-1.7-0.1-3.3,0.5-4.5,1.7
			c-0.8,1.1-1.3,2.3-1.4,3.7L352.2,31.7z"/>
		<path class="st0" d="M390.1,44.6h-10.9c-1.5,0-2.7-1.1-2.7-2.6c0,0,0,0,0,0V14.5c0-1.4,1.2-2.6,2.7-2.5h9.2c4.9,0,9.9,2.6,9.9,8.3
			c0,3.5-1.6,5.9-4.2,7.1v0.1c4.7,1,6.9,4.1,6.9,8.4C401,42,395.6,44.6,390.1,44.6z M387.4,16.3h-5.6v9.6h5.9c2.5,0,5.1-1.2,5.1-4.9
			C392.9,17.8,390.4,16.3,387.4,16.3z M389.2,30.2h-7.4v10.1h7.1c3.4,0,6.5-1.2,6.5-5.1C395.5,32.4,393.6,30.2,389.2,30.2z"/>
		<path class="st0" d="M410.1,32.9c2.7-1.1,6.2-1.4,9.2-1.7v-0.6c0.1-1.2-0.2-2.3-0.9-3.3c-0.8-0.9-2-1.3-3.2-1.2
			c-1.4,0-2.8,0.3-4.1,0.9c-0.7,0.4-1.5,0.7-2.4,0.8c-1,0-1.8-0.7-1.8-1.7c0,0,0-0.1,0-0.1c0-1.2,1.1-1.9,2.5-2.5
			c2-0.8,4.1-1.2,6.2-1.2c2.2,0,4.9,0.4,6.7,2.4c1.1,1.3,1.8,3.1,1.8,5.8v12c-0.1,1.4-1.2,2.5-2.6,2.4c-0.9,0-1.7-0.5-2.1-1.3
			c-1.9,1-4,1.4-6.1,1.3c-3.9,0-7.5-2.3-7.5-6.6C405.9,35.6,407.7,33.9,410.1,32.9z M419.4,40.3v-5.6c-5.2,0.3-8.7,1.2-8.7,3.8
			c0,2.1,2.1,3.1,4.4,3.1C416.5,41.5,418,41.1,419.4,40.3z"/>
		<path class="st0" d="M433.8,49.4c1.1,0,1.4,0.5,2.8,1.3c1.2,0.8,2.6,1.2,4,1.2c1.6,0.1,3.1-0.4,4.2-1.5c1-1.1,1.4-2.6,1.3-4.1
			v-2.9c-1.7,1.2-3.8,1.8-5.9,1.7c-2.7,0.1-5.2-1-7.1-2.9c-2.1-2.3-3.2-5.3-3.1-8.4c-0.1-3,1-6,2.9-8.3c1.9-2,4.5-3.1,7.2-3
			c2.1,0,4.2,0.7,6,1.8c0.4-1.3,1.8-2,3.1-1.6c1,0.3,1.7,1.2,1.8,2.3v20.6c0,3.6-1,6.3-3,8.1c-1.7,1.6-4.2,2.4-7.4,2.4
			c-3,0-9-1.1-9-4.4C431.7,50.4,432.6,49.4,433.8,49.4C433.8,49.4,433.8,49.4,433.8,49.4z M446.2,39.2V28.6c-1.5-1.3-3.3-2-5.2-2
			c-1.6-0.1-3.1,0.6-4.2,1.8c-1.1,1.5-1.7,3.4-1.6,5.3c-0.1,2,0.4,3.9,1.6,5.5c1,1.2,2.5,1.9,4.1,1.8
			C442.8,41.1,444.7,40.4,446.2,39.2z"/>
		<path class="st0" d="M477.8,41.4c0,1.1-0.8,1.8-2.2,2.4c-2.1,0.9-4.3,1.3-6.6,1.3c-3.2,0.1-6.4-1.1-8.6-3.4c-2-2.3-3.1-5.2-3-8.3
			c-0.1-3,1-5.8,3-8c4.4-4.1,11.2-4.2,15.8-0.2c1.8,1.9,2.7,4.4,2.6,7c0.1,1.4-0.9,2.6-2.2,2.7c-0.1,0-0.2,0-0.3,0h-13.8
			c0.1,1.5,0.7,2.9,1.6,4c1.3,1.5,3.2,2.3,5.2,2.2c1.5,0,3-0.4,4.4-1c1-0.5,1.6-0.9,2.3-0.9C477.1,39.4,477.9,40.3,477.8,41.4
			C477.8,41.3,477.8,41.4,477.8,41.4z M473.9,31.7c0-1.4-0.5-2.7-1.4-3.8c-1.1-1.1-2.6-1.7-4.1-1.6c-1.7-0.1-3.3,0.5-4.5,1.7
			c-0.8,1.1-1.3,2.3-1.4,3.7L473.9,31.7z"/>
		<path class="st0" d="M499.4,23.3c1,0.4,1.6,1.4,1.6,2.4c0.1,1.2-0.8,2.2-2,2.2c0,0-0.1,0-0.1,0c-1.4,0-2.1-1.2-4.3-1.2
			c-3.7,0-4.9,3.9-4.9,7.3v8.6c0,1.3-1.1,2.4-2.5,2.4c-1.3,0-2.4-1-2.4-2.3c0,0,0,0,0-0.1v-18c0-1.4,1.1-2.5,2.5-2.5
			s2.5,1.1,2.5,2.5v0.7c1.2-2,3.4-3.1,5.7-3.1C496.8,22.3,498.2,22.7,499.4,23.3z"/>
		<path class="st0" d="M504.3,12.8c0-1.6,1.3-2.9,2.9-2.8c1.6,0,2.9,1.3,2.8,2.9c0,1.6-1.3,2.8-2.8,2.8c-1.6,0-2.8-1.2-2.9-2.7
			C504.3,12.9,504.3,12.8,504.3,12.8z M507.1,22.4c1.3,0,2.4,1.1,2.4,2.4c0,0,0,0,0,0v18c0,1.3-1.1,2.4-2.5,2.4
			c-1.3,0-2.4-1-2.4-2.3c0,0,0,0,0-0.1v-18C504.7,23.4,505.8,22.4,507.1,22.4C507.1,22.4,507.1,22.4,507.1,22.4z"/>
		<path class="st0" d="M147,27.3c-0.4,0.2,3.3,6,4.5,16.1c0.3,3,0.4,6.1,0.2,9.2c-0.3,5.8-1.6,11.6-3.6,17.1
			c-0.1,0.3,0.1,0.7,0.4,0.8c0.2,0.1,0.4,0,0.6-0.1c5-5.6,7.8-12.8,7.9-20.4c-0.2-6.6-2.3-13.1-6.1-18.5
			C149.4,29.3,147.4,27.1,147,27.3z"/>
		<path class="st0" d="M13.1,31.2c0.1-0.4-0.1-0.9-0.5-1c-0.3-0.1-0.7,0-0.9,0.3C7,36.3,4.4,42.9,4.4,49.8c0,7.6,3.1,14.8,8.7,21.1
			c0.1,0.2,0.4,0.2,0.5,0.1c0.1-0.1,0.2-0.3,0.1-0.4c-1.6-4.2-2.7-8.5-3.3-13c-0.6-4.8-0.5-9.7,0.2-14.6C11,39,11.9,35.1,13.1,31.2z
			"/>
		<path class="st0" d="M41.2,70.9c0.5,0.9,0.7,1.9,0.6,2.9c0,2.2-0.5,3.8-1.6,4.7c-2.1,2-4.7,3.5-7.5,4.1c-2.6,0.5-5.4-0.2-8.2-2
			c-3.6-2.5-6.4-6.1-7.9-10.2c-1.5-3.7-2.2-7.7-2.2-11.7c0.1-4.6,0.6-9.1,1.6-13.6c1.2-5.9,3-11.6,5.4-17.1
			c2.5-5.9,5.8-10.7,10.1-12.9c2.4-1.2,4.4-1,5.9,0.8s2.3,5,2.3,9.5c0,6.4-1.9,14.4-5.3,22.5s-7.9,15.1-12.6,19.3
			c0.2,1.5,0.7,3,1.5,4.3c0.7,1.1,1.6,1.9,2.8,2.5c1.6,0.9,3.4,1.1,5.2,0.5c2.3-1.1,4.4-2.5,6.2-4.3c0.6-0.6,1.4-0.8,2.2-0.7
			C40.2,69.7,40.8,70.2,41.2,70.9z M26.2,30.3c-1.4,4.7-2.6,9.4-3.4,14.2c-0.9,4.8-1.4,9.6-1.6,14.5c3.2-4.6,5.8-9.7,7.6-15
			c1.9-5.2,3-10.6,3.1-16.1c0-3.7-0.7-5.3-2.1-4.8C28.7,23.5,27.4,26.1,26.2,30.3L26.2,30.3z"/>
		<path class="st0" d="M37.4,83.6c-1.6-3.2-2.4-6.7-2.4-10.3c0.1-2.9,0.4-5.9,0.9-8.7c0.6-3.4,1.4-6.8,2.4-10.1c0.3-1.3,1-2.6,2-3.5
			c1.2-0.8,2.7-1.1,4.1-1c3,0,4.5,1,4.5,3c-0.3,3.4-0.9,6.7-1.7,10c-1.4,6.2-2.1,10.3-2.1,12.5c-0.1,1.4,0.2,2.8,0.7,4.1
			c0.4,1,1.3,1.7,2.4,1.9c1.1,0.2,2.4-0.2,4.1-1.4c2.4-1.9,4.7-4,6.8-6.3c0.7-0.7,1.6-1.1,2.6-1.1c0.8,0.1,1.6,0.5,2,1.3
			c0.5,1,0.8,2.1,0.7,3.2c0,2.5-0.6,4.4-1.9,5.6c-6.5,6.8-12.3,9-17.3,7.4C42,89.1,39.1,86.8,37.4,83.6z M40.7,43
			c-1.2-1.1-1.9-2.7-1.8-4.3c0-1.9,0.9-3.8,2.3-5.1c1.6-1.6,3.7-2.6,6-2.8c1.9-0.4,3.8,0,5.5,0.9c1.5,1,2.3,2.7,2.2,4.4
			c0.1,2.2-0.8,4.3-2.5,5.8c-1.7,1.5-4,2.3-6.3,2.3C43.7,44.4,41.9,43.9,40.7,43z"/>
		<path class="st0" d="M97.5,73.9c0.5,0.9,0.8,1.9,0.8,3c0.1,2.2-0.6,4.3-1.9,6c-2.7,3.5-5.9,6.5-9.5,8.9c-3.5,2.3-7.8,3.5-12,3.3
			c-6.1-0.3-10.4-3.4-13.2-8.8s-4.1-11.8-4.1-19.6c0.1-8.6,1.1-17.2,3-25.6c1.8-8.4,4.9-18.1,9.3-25.7c4.2-7.3,9.4-11.2,15.3-11
			c3.2,0.1,6.2,1.9,7.8,4.7c1.9,3,2.8,7.1,2.8,12.3c0,9.2-3.3,17.9-6.7,26C84.4,58,77.6,68.1,70.2,77.1c0.2,2.1,1.1,4.1,2.4,5.7
			c1.1,1.2,2.7,1.9,4.4,1.8c2.7,0.1,5.4-0.7,7.6-2.3c3-2.4,5.7-5,8.2-8c0.7-0.9,1.7-1.4,2.7-1.5C96.2,72.8,97,73.2,97.5,73.9z
			 M77.2,21.9c-2.3,6.4-4.1,13.1-5.3,19.8c-1.5,7.4-2.3,14.9-2.4,22.5c4.7-7,8.7-14.5,11.8-22.4c2.9-7.5,4.4-14.3,4.4-20.6
			c0-4.9-1-7.3-2.9-7.4C81.1,13.9,79.3,16.6,77.2,21.9z"/>
		<path class="st0" d="M126.7,69.5c0.4,0.7,0.6,1.5,0.6,2.4c0.1,1.9-0.5,3.7-1.5,5.2c-2.2,3.4-4.8,6.6-7.8,9.5
			c-2.8,2.8-6.4,4.8-10.3,5.7c-5.5,1.2-9.8-0.6-12.7-5.4s-4.3-11.3-4.3-19.4c0-8.7,1.4-18.1,3.2-26.4c1.7-7.9,4.8-17.3,9.2-24.4
			c4-6.3,8.5-8.5,13.5-6.9c2.8,1,5.1,3.1,6.4,5.8c1.6,3.4,2.4,7.1,2.2,10.8c0,6.2-1.6,13.1-5.4,21.4c-4.7,9.8-10.1,19.3-16.2,28.3
			c0.4,2.4,1.2,4.1,2.2,5c1.1,0.9,2.6,1.3,3.9,0.9c2.5-0.5,4.7-1.6,6.5-3.4c2.5-2.5,4.7-5.3,6.7-8.2c0.5-0.8,1.3-1.3,2.2-1.6
			C125.7,68.7,126.4,68.9,126.7,69.5z M110,24c-2.1,5.9-3.7,11.9-4.8,18.1c-1.4,7.1-2.1,14.4-2.3,21.6c4.2-6.7,7.7-13.8,10.5-21.1
			c2.3-5.7,3.6-11.8,3.7-17.9c0-4.3-0.8-6.6-2.5-7C113.3,17.4,111.8,19.4,110,24z"/>
		<path class="st0" d="M146.6,63.7c0.3,0.4,0.4,0.9,0.4,1.3c0,1.3-0.3,2.5-0.9,3.7c-1,2.4-2.4,4.7-4,6.7c-1.9,2.5-4.3,4.6-6.9,6.2
			c-4.4,2.7-8.4,3-11.2,1s-4.4-6-4.4-11.4c0-3.8,0.8-7.5,2.4-10.9c1.4-3.1,3.6-5.8,6.4-7.9c2.4-1.7,5.4-2.7,8.4-2.6
			c2.1-0.1,4.2,0.6,5.8,1.9c1.4,1.2,2.1,3,2,4.8c0,2.4-0.9,4.8-2.8,7.5s-5.4,6-11.3,9.5c1.2,1.8,3.2,2,5.8,0.8
			c1.7-0.8,3.2-2,4.4-3.5c1.3-1.8,2.5-3.6,3.6-5.6c0.3-0.6,0.8-1.2,1.4-1.6C146,63.5,146.3,63.5,146.6,63.7z M131.1,60.1
			c-1.3,2.5-2,5.2-1.9,8v0.1c2.5-1.2,4.8-2.8,6.7-4.7c1.3-1.2,2.2-2.9,2.3-4.8c0-0.7-0.2-1.3-0.7-1.8c-0.5-0.4-1.2-0.6-1.9-0.5
			C133.9,56.7,132.4,57.8,131.1,60.1z"/>
	</g>
</g>
</svg>
