<svg xmlns="http://www.w3.org/2000/svg" width="28.73" height="28.73" viewBox="0 0 28.73 28.73">
  <g id="Icon_feather-instagram" data-name="Icon feather-instagram" transform="translate(-1.5 -1.5)">
    <path id="Path_9" data-name="Path 9" d="M9.432,3H22.3A6.432,6.432,0,0,1,28.73,9.432V22.3A6.433,6.433,0,0,1,22.3,28.73H9.432A6.432,6.432,0,0,1,3,22.3V9.432A6.432,6.432,0,0,1,9.432,3Z" transform="translate(0 0)" fill="none" stroke="#f7f7f7" stroke-linecap="round" stroke-linejoin="round" stroke-width="3"/>
    <path id="Path_10" data-name="Path 10" d="M21.109,15.815a4.547,4.547,0,1,1-3.831-3.831,4.547,4.547,0,0,1,3.831,3.831Z" transform="translate(-0.687 -0.677)" fill="none" stroke="#f7f7f7" stroke-linecap="round" stroke-linejoin="round" stroke-width="3"/>
    <path id="Path_11" data-name="Path 11" d="M26.25,9.75h0" transform="translate(-3.309 -0.961)" fill="none" stroke="#f7f7f7" stroke-linecap="round" stroke-linejoin="round" stroke-width="3"/>
  </g>
</svg>
