<svg xmlns="http://www.w3.org/2000/svg" width="99.249" height="31.98" viewBox="0 0 99.249 31.98">
  <g id="MP_RGB_NoTM_Logo_Type_Horisontal_Blue" data-name="MP_RGB_NoTM_Logo+Type Horisontal Blue" transform="translate(0 -0.001)">
    <path id="Path_12" data-name="Path 12" d="M12.038,31.981a2.706,2.706,0,0,1-2.5-1.669L.207,7.784a2.7,2.7,0,0,1,1.462-3.53L11.443.207a2.7,2.7,0,0,1,3.529,1.462L24.3,24.2a2.7,2.7,0,0,1-1.462,3.528l-9.774,4.05A2.689,2.689,0,0,1,12.038,31.981Zm.439-30.527a1.244,1.244,0,0,0-.477.1L2.225,5.6A1.247,1.247,0,0,0,1.55,7.228l9.332,22.529a1.249,1.249,0,0,0,1.629.675l9.774-4.051h0a1.247,1.247,0,0,0,.675-1.629L13.628,2.225A1.249,1.249,0,0,0,12.477,1.454Z" transform="translate(0 0)" fill="#5a78ff"/>
    <rect id="Rectangle_78" data-name="Rectangle 78" width="1.454" height="9.655" transform="matrix(0.924, -0.383, 0.383, 0.924, 14.245, 3.711)" fill="#fff" opacity="0.7" style="mix-blend-mode: multiply;isolation: isolate"/>
    <rect id="Rectangle_79" data-name="Rectangle 79" width="1.454" height="10.929" transform="matrix(-0.924, 0.383, -0.383, -0.924, 23.683, 22.699)" fill="#fff" opacity="0.7" style="mix-blend-mode: multiply;isolation: isolate"/>
    <path id="Path_13" data-name="Path 13" d="M15.962,13.971A16.49,16.49,0,0,0,9.3,18.654L5.364,9.138a16.638,16.638,0,0,1,6.657-4.683,16.022,16.022,0,0,1,8.019-1.393l3.941,9.515A16.631,16.631,0,0,0,15.962,13.971Z" transform="translate(4.681 2.591)" fill="#5a78ff"/>
    <g id="Group_71" data-name="Group 71" transform="translate(10.045 5.561)" opacity="0.4" style="mix-blend-mode: multiply;isolation: isolate">
      <path id="Path_14" data-name="Path 14" d="M10.762,11.248A16.49,16.49,0,0,0,4.1,15.931L.165,6.415A16.638,16.638,0,0,1,6.822,1.732,16.022,16.022,0,0,1,14.841.339l3.941,9.515A16.63,16.63,0,0,0,10.762,11.248Z" transform="translate(-0.165 -0.247)" fill="#fff" opacity="0.9"/>
      <path id="Path_15" data-name="Path 15" d="M10.762,11.248A16.49,16.49,0,0,0,4.1,15.931L.165,6.415A16.638,16.638,0,0,1,6.822,1.732,16.022,16.022,0,0,1,14.841.339l3.941,9.515A16.63,16.63,0,0,0,10.762,11.248Z" transform="translate(-0.165 -0.247)" fill="#fff" opacity="0.7"/>
    </g>
    <path id="Path_16" data-name="Path 16" d="M15.41,14.881a16.482,16.482,0,0,0-7.942,1.778V7.037A16.638,16.638,0,0,1,15.41,5.259a16.046,16.046,0,0,1,7.942,1.78v9.622A16.631,16.631,0,0,0,15.41,14.881Zm15.457.009,2.448-7.738a.255.255,0,0,1,.227-.195h1.229a.3.3,0,0,1,.241.195l1.906,4.882c.037.1.134.107.167,0l1.892-4.882a.3.3,0,0,1,.241-.195h1.229a.255.255,0,0,1,.227.195l2.42,7.738a.185.185,0,0,1-.181.264h-1.46a.213.213,0,0,1-.218-.167L39.681,9.961c-.023-.1-.134-.1-.167,0L37.66,14.95a.274.274,0,0,1-.264.2h-.858c-.134,0-.2-.074-.255-.2L34.391,9.961c-.037-.1-.134-.1-.158,0l-1.59,5.026a.218.218,0,0,1-.227.167H31.025a.181.181,0,0,1-.158-.264Zm12.69-2.782A3.246,3.246,0,1,1,46.8,15.288a3.139,3.139,0,0,1-3.246-3.181Zm4.822,0a1.595,1.595,0,1,0-1.576,1.7,1.637,1.637,0,0,0,1.567-1.7ZM52.9,14.653c-.121-.1-.227-.06-.227.107v.158a.227.227,0,0,1-.218.227H51.328a.236.236,0,0,1-.227-.227V7.179a.236.236,0,0,1,.227-.227h1.192a.227.227,0,0,1,.218.227V9.386c0,.158.107.2.278.083A2.647,2.647,0,0,1,54.6,8.941a3.011,3.011,0,0,1,2.916,3.181A3.042,3.042,0,0,1,54.546,15.3,2.467,2.467,0,0,1,52.9,14.653Zm2.967-2.532a1.595,1.595,0,1,0-3.181,0A1.613,1.613,0,0,0,54.272,13.8a1.637,1.637,0,0,0,1.6-1.688Zm2.638-4.6a.927.927,0,1,1,.927.927A.927.927,0,0,1,58.51,7.517Zm.083,7.418V9.326a.227.227,0,0,1,.218-.227H60a.236.236,0,0,1,.246.227v5.592a.236.236,0,0,1-.227.227h-1.21a.227.227,0,0,1-.218-.227ZM61.574,13.1V7.179a.227.227,0,0,1,.218-.227h1.192a.236.236,0,0,1,.227.227v5.958c0,.385.167.64.589.64a.227.227,0,0,1,.227.227v.988a.227.227,0,0,1-.227.218C62.214,15.209,61.574,14.69,61.574,13.1Zm2.9-.955a3.134,3.134,0,1,1,6.268.023c0,.218-.06.4-.278.4H66.318c-.107,0-.144.06-.134.158a1.391,1.391,0,0,0,1.484,1.192,1.474,1.474,0,0,0,1.145-.519A.464.464,0,0,1,69.2,13.2H70.3c.195,0,.278.134.2.325a3.176,3.176,0,0,1-6.027-1.391Zm4.4-.556c.083,0,.121-.037.107-.134a1.391,1.391,0,0,0-1.391-1.131,1.428,1.428,0,0,0-1.391,1.1c-.023.083,0,.167.1.167Zm2.87,3.329V7.179a.227.227,0,0,1,.218-.227h3.8a2.633,2.633,0,0,1,2.916,2.712,2.768,2.768,0,0,1-3,2.749H73.662a.2.2,0,0,0-.218.227v2.276a.236.236,0,0,1-.227.227H71.965A.227.227,0,0,1,71.742,14.917Zm3.932-3.9a1.307,1.307,0,0,0,1.266-1.34A1.238,1.238,0,0,0,75.669,8.4H73.643c-.144,0-.2.074-.2.218v2.193c0,.144.06.218.2.218Zm3.584,1.094a3.065,3.065,0,0,1,2.991-3.181,2.43,2.43,0,0,1,1.6.617c.107.1.227.083.227-.06V9.326a.218.218,0,0,1,.218-.218h1.131a.236.236,0,0,1,.227.227v3.978c0,.3.107.436.315.464a.209.209,0,0,1,.2.195v1.048a.2.2,0,0,1-.2.2,1.569,1.569,0,0,1-1.53-.686c-.074-.121-.158-.144-.278-.023a2.661,2.661,0,0,1-1.943.807,3.055,3.055,0,0,1-2.963-3.213Zm4.822,0a1.59,1.59,0,1,0-3.171,0,1.59,1.59,0,1,0,3.171,0Zm2.657,5.16V16.28a.227.227,0,0,1,.227-.218A1.692,1.692,0,0,0,88.7,14.9a.668.668,0,0,0-.046-.464L86.435,9.423A.218.218,0,0,1,86.63,9.1h1.192c.121,0,.195.1.241.218l1.391,3.208c.1.255.255.241.362,0l1.326-3.218c.046-.121.107-.195.227-.195h1.145a.209.209,0,0,1,.2.287l-2.281,5.4c-.83,1.966-1.711,2.7-3.473,2.7A.236.236,0,0,1,86.736,17.268Z" transform="translate(6.516 4.583)" fill="#5a78ff"/>
  </g>
</svg>
