<svg xmlns="http://www.w3.org/2000/svg" width="57.598" height="50" viewBox="0 0 57.598 50">
  <path id="Icon_awesome-quote-left" data-name="Icon awesome-quote-left" d="M52.2,27.25h-9V20.107a7.178,7.178,0,0,1,7.2-7.143h.9A2.683,2.683,0,0,0,54,10.286V4.929A2.683,2.683,0,0,0,51.3,2.25h-.9a17.924,17.924,0,0,0-18,17.857V46.893a5.38,5.38,0,0,0,5.4,5.357H52.2a5.38,5.38,0,0,0,5.4-5.357V32.607A5.38,5.38,0,0,0,52.2,27.25Zm-32.4,0h-9V20.107A7.178,7.178,0,0,1,18,12.964h.9a2.683,2.683,0,0,0,2.7-2.679V4.929A2.683,2.683,0,0,0,18.9,2.25H18A17.924,17.924,0,0,0,0,20.107V46.893A5.38,5.38,0,0,0,5.4,52.25H19.8a5.38,5.38,0,0,0,5.4-5.357V32.607A5.38,5.38,0,0,0,19.8,27.25Z" transform="translate(0 -2.25)" fill="#d0de92"/>
</svg>
